<svg xmlns="http://www.w3.org/2000/svg" viewBox="0 0 760 360" font-family="ui-monospace,Menlo,Consolas,monospace" font-size="14">
<rect width="760" height="360" rx="14" fill="#1f1f1f"/>
<rect x="20" y="20" width="560" height="320" rx="14" fill="#2b2b2b" stroke="#444"/>
<rect x="50" y="36" width="320" height="104" rx="6" fill="#111" stroke="#555"/>
<text x="62" y="60" fill="#d77757">&gt; fix the tests</text><text x="62" y="82" fill="#e6e6e6">⏺ Bash(pytest)</text>
<text x="62" y="104" fill="#8a93a0">  ⎿ 3 passed</text><text x="62" y="126" fill="#d77757">✻ Brewing… (12s)</text>
<text x="395" y="62" fill="#8a93a0" font-size="12">1.9" screen</text>
<rect x="50" y="170" width="110" height="64" rx="10" fill="#333" stroke="#5769f7" stroke-width="2"/>
<text x="105" y="200" text-anchor="middle" fill="#e6e6e6" font-size="22" font-weight="bold">1</text>
<text x="105" y="222" text-anchor="middle" fill="#5769f7" font-size="12">pick 1</text>
<rect x="180" y="170" width="110" height="64" rx="10" fill="#333" stroke="#5769f7" stroke-width="2"/>
<text x="235" y="200" text-anchor="middle" fill="#e6e6e6" font-size="22" font-weight="bold">2</text>
<text x="235" y="222" text-anchor="middle" fill="#5769f7" font-size="12">pick 2</text>
<rect x="310" y="170" width="110" height="64" rx="10" fill="#333" stroke="#5769f7" stroke-width="2"/>
<text x="365" y="200" text-anchor="middle" fill="#e6e6e6" font-size="22" font-weight="bold">3</text>
<text x="365" y="222" text-anchor="middle" fill="#5769f7" font-size="12">pick 3</text>
<rect x="440" y="170" width="110" height="64" rx="10" fill="#333" stroke="#d77757" stroke-width="2"/>
<text x="495" y="200" text-anchor="middle" fill="#e6e6e6" font-size="22" font-weight="bold">4</text>
<text x="495" y="222" text-anchor="middle" fill="#d77757" font-size="12">up / scroll</text>
<rect x="50" y="250" width="110" height="64" rx="10" fill="#333" stroke="#8a93a0" stroke-width="2"/>
<text x="105" y="280" text-anchor="middle" fill="#e6e6e6" font-size="22" font-weight="bold">5</text>
<text x="105" y="302" text-anchor="middle" fill="#8a93a0" font-size="12">Esc / to PC</text>
<rect x="180" y="250" width="110" height="64" rx="10" fill="#333" stroke="#4eba65" stroke-width="2"/>
<text x="235" y="280" text-anchor="middle" fill="#e6e6e6" font-size="22" font-weight="bold">6</text>
<text x="235" y="302" text-anchor="middle" fill="#4eba65" font-size="12">sessions</text>
<rect x="310" y="250" width="110" height="64" rx="10" fill="#333" stroke="#5769f7" stroke-width="2"/>
<text x="365" y="280" text-anchor="middle" fill="#e6e6e6" font-size="22" font-weight="bold">7</text>
<text x="365" y="302" text-anchor="middle" fill="#5769f7" font-size="12">Enter</text>
<rect x="440" y="250" width="110" height="64" rx="10" fill="#333" stroke="#d77757" stroke-width="2"/>
<text x="495" y="280" text-anchor="middle" fill="#e6e6e6" font-size="22" font-weight="bold">8</text>
<text x="495" y="302" text-anchor="middle" fill="#d77757" font-size="12">down / scroll</text>
<circle cx="480" cy="88" r="34" fill="#333" stroke="#8a93a0" stroke-width="2"/><text x="480" y="84" text-anchor="middle" fill="#e6e6e6" font-size="12">encoder</text><text x="480" y="102" text-anchor="middle" fill="#8a93a0" font-size="11">turn ▲▼ · click Esc</text>
<circle cx="640" cy="160" r="24" fill="none" stroke="#8a93a0" stroke-dasharray="5 4" stroke-width="2"/><text x="640" y="165" text-anchor="middle" fill="#e6e6e6" font-size="18">🎙</text>
<text x="670" y="210" fill="#e6e6e6" font-size="13">mic</text><text x="610" y="236" fill="#8a93a0" font-size="11">push-to-talk</text><text x="610" y="252" fill="#8a93a0" font-size="11">(not wired yet)</text>
</svg>